<svg class="_2BMLeQ_Q2tfBzrcfsUAQZi" xmlns="http://www.w3.org/2000/svg" viewBox="0 0 20 20"><g id="icons_flat" data-name="icons flat"><path d="M5,3.723h9v-2H5a3,3,0,0,0-3,3H4A1,1,0,0,1,5,3.723Z"></path><path d="M19.294,7.429A1.116,1.116,0,0,0,18.5,7.1h-.009l-2.345.018a1.117,1.117,0,0,0-.613.185h0L13.626,8.562V7.223A1.127,1.127,0,0,0,12.5,6.1H1.5A1.127,1.127,0,0,0,.376,7.223v3.494a8.5,8.5,0,0,1,7.652,7.631H12.5a1.127,1.127,0,0,0,1.125-1.125V15.884l1.91,1.26a1.145,1.145,0,0,0,.609.184l2.347.016H18.5a1.125,1.125,0,0,0,1.125-1.125V8.226A1.116,1.116,0,0,0,19.294,7.429Z"></path><path d="M.374,14.764v1.29a3.221,3.221,0,0,1,2.311,2.294H3.971A4.481,4.481,0,0,0,.374,14.764Z"></path><path d="M.374,12.1v1.275a5.857,5.857,0,0,1,5.007,4.973H6.644A7.12,7.12,0,0,0,.374,12.1Z"></path></g></svg>